SplineFontDB: 3.0
FontName: Seven
FullName: Seven
FamilyName: Seven
Weight: 
Copyright: Copyright (c) 2013, Vernon Adams
Version: 001.000
ItalicAngle: 0
UnderlinePosition: -100
UnderlineWidth: 50
Ascent: 800
Descent: 200
sfntRevision: 0x00010000
LayerCount: 2
Layer: 0 0 "Back"  1
Layer: 1 0 "Fore"  0
XUID: [1021 154 -776058584 10027910]
FSType: 0
OS2Version: 3
OS2_WeightWidthSlopeOnly: 0
OS2_UseTypoMetrics: 1
CreationTime: 1360349783
ModificationTime: 1360357339
PfmFamily: 17
TTFWeight: 400
TTFWidth: 5
LineGap: 90
VLineGap: 0
Panose: 2 0 5 3 0 0 0 0 0 0
OS2TypoAscent: 800
OS2TypoAOffset: 0
OS2TypoDescent: -200
OS2TypoDOffset: 0
OS2TypoLinegap: 90
OS2WinAscent: 900
OS2WinAOffset: 0
OS2WinDescent: 280
OS2WinDOffset: 0
HheadAscent: 900
HheadAOffset: 0
HheadDescent: -280
HheadDOffset: 0
OS2SubXSize: 650
OS2SubYSize: 700
OS2SubXOff: 0
OS2SubYOff: 140
OS2SupXSize: 650
OS2SupYSize: 700
OS2SupXOff: 0
OS2SupYOff: 480
OS2StrikeYSize: 49
OS2StrikeYPos: 258
OS2Vendor: 'newt'
OS2CodePages: 00000001.00000000
OS2UnicodeRanges: 00000003.00000000.00000000.00000000
MarkAttachClasses: 1
DEI: 91125
LangName: 1033 
Encoding: UnicodeBmp
UnicodeInterp: none
NameList: AGL For New Fonts
DisplaySize: -48
AntiAlias: 1
FitToEm: 1
WinInfo: 50 25 13
BeginPrivate: 7
BlueValues 23 [-20 0 651 671 880 900]
OtherBlues 11 [-260 -260]
BlueShift 1 0
StdHW 4 [56]
StdVW 4 [62]
StemSnapH 17 [41 56 94 97 199]
StemSnapV 19 [56 58 61 62 94 97]
EndPrivate
TeXData: 1 0 0 881852 440926 293950 682623 1048576 293950 783286 444596 497025 792723 393216 433062 380633 303038 157286 324010 404750 52429 2506097 1059062 262144
BeginChars: 65537 74

StartChar: exclam
Encoding: 33 33 2
Width: 164
GlyphClass: 2
Flags: MW
HStem: 0 94<67.5 96.5> 860 20G<51 113 113 113>
VStem: 35 94<32.5 61.5> 51 62<270 880 270 880>
LayerCount: 2
Fore
SplineSet
35 47 m 0xe0
 35 76 53 94 82 94 c 0
 111 94 129 76 129 47 c 0
 129 18 111 0 82 0 c 0
 53 0 35 18 35 47 c 0xe0
51 270 m 1xd0
 51 880 l 1
 113 880 l 1
 113 270 l 1
 51 270 l 1xd0
EndSplineSet
EndChar

StartChar: ampersand
Encoding: 38 38 3
Width: 904
GlyphClass: 2
Flags: MW
HStem: -20 56<336 404 336 412> 412 56<336 822 370 627 688 822 688 688> 844 56<336 412 327.5 416.5>
VStem: 51 62<196.5 251.5 196.5 259 628.5 683.5> 627 61<224 412>
CounterMasks: 1 e0
LayerCount: 2
Fore
SplineSet
601 754 m 1
 558 823 463 844 370 844 c 0
 302 844 232 837 177 797 c 0
 133 765 113 711 113 656 c 0
 113 601 133 547 177 515 c 0
 232 475 302 468 370 468 c 2
 822 468 l 1
 822 412 l 1
 688 412 l 1
 688 224 l 2
 688 154 664 84 609 41 c 1
 541 -10 454 -20 370 -20 c 0
 285 -20 198 -10 131 41 c 0
 75 84 51 154 51 224 c 0
 51 294 75 364 131 407 c 0
 149 421 168 432 189 440 c 1
 168 448 149 459 131 473 c 0
 75 516 51 586 51 656 c 0
 51 726 75 796 131 839 c 0
 198 890 285 900 370 900 c 0
 454 900 541 890 609 839 c 0
 628 824 643 806 655 786 c 1
 601 754 l 1
627 224 m 2
 627 412 l 1
 370 412 l 2
 302 412 232 405 177 365 c 0
 133 333 113 279 113 224 c 0
 113 169 133 115 177 83 c 0
 232 43 302 36 370 36 c 0
 438 36 508 43 562 83 c 0
 606 115 627 169 627 224 c 2
EndSplineSet
EndChar

StartChar: plus
Encoding: 43 43 4
Width: 684
GlyphClass: 2
Flags: MW
HStem: 298 56<82 311 82 311 373 601>
VStem: 311 62<56 298 56 298 354 595>
LayerCount: 2
Fore
SplineSet
82 298 m 1
 82 354 l 1
 311 354 l 1
 311 595 l 1
 373 595 l 1
 373 354 l 1
 601 354 l 1
 601 298 l 1
 373 298 l 1
 373 56 l 1
 311 56 l 1
 311 298 l 1
 82 298 l 1
EndSplineSet
EndChar

StartChar: comma
Encoding: 44 44 5
Width: 164
GlyphClass: 2
Flags: MW
HStem: -78 199<51 113 51 113>
VStem: 51 62<-78 121 -78 121>
LayerCount: 2
Fore
SplineSet
51 121 m 1
 113 121 l 1
 113 -78 l 1
 51 -78 l 1
 51 121 l 1
EndSplineSet
EndChar

StartChar: hyphen
Encoding: 45 45 6
Width: 500
GlyphClass: 2
Flags: MW
HStem: 493 56<82 418 82 418>
LayerCount: 2
Fore
SplineSet
82 493 m 1
 82 549 l 1
 418 549 l 1
 418 493 l 1
 82 493 l 1
EndSplineSet
EndChar

StartChar: period
Encoding: 46 46 7
Width: 164
GlyphClass: 2
Flags: MW
HStem: 0 94<67.5 96.5>
VStem: 35 94<32.5 61.5>
LayerCount: 2
Fore
SplineSet
35 47 m 0
 35 76 53 94 82 94 c 0
 111 94 129 76 129 47 c 0
 129 18 111 0 82 0 c 0
 53 0 35 18 35 47 c 0
EndSplineSet
EndChar

StartChar: zero
Encoding: 48 48 8
Width: 757
GlyphClass: 2
Flags: MW
HStem: -20 56<339 418.5 339 426.5> 844 56<339 418.5>
VStem: 51 62<387 493 387 500.5> 644 62<387 493>
LayerCount: 2
Fore
SplineSet
379 844 m 0
 299 844 223 809 179 743 c 0
 121 655 113 546 113 440 c 0
 113 334 121 225 179 137 c 0
 223 71 299 36 379 36 c 0
 458 36 534 71 578 137 c 0
 636 225 644 334 644 440 c 0
 644 546 636 655 578 743 c 0
 534 809 458 844 379 844 c 0
379 900 m 0
 474 900 569 863 624 785 c 0
 694 686 706 561 706 440 c 0
 706 319 694 194 624 95 c 0
 569 17 474 -20 379 -20 c 0
 283 -20 189 17 133 95 c 0
 63 194 51 319 51 440 c 0
 51 561 63 686 133 785 c 0
 189 863 283 900 379 900 c 0
EndSplineSet
EndChar

StartChar: one
Encoding: 49 49 9
Width: 610
GlyphClass: 2
Flags: MW
HStem: 0 21G<274 274 274 336> 860 20G<236 336 336 336>
VStem: 274 62<0 834 834 834>
LayerCount: 2
Fore
SplineSet
274 0 m 1
 274 834 l 1
 117 572 l 1
 51 572 l 1
 236 880 l 1
 336 880 l 1
 336 0 l 1
 274 0 l 1
EndSplineSet
EndChar

StartChar: two
Encoding: 50 50 10
Width: 684
GlyphClass: 2
Flags: MW
HStem: 0 56<113 629 113 629> 412 56<310 372.5 301.5 381> 844 56<311.5 372.5>
VStem: 51 62<56 163 56 163 56 204.5> 571 61<629.5 682.5>
LayerCount: 2
Fore
SplineSet
81 786 m 1
 92 806 106 824 124 839 c 0
 184 889 264 900 342 900 c 0
 420 900 500 889 560 839 c 0
 612 795 632 725 632 656 c 0
 632 587 612 517 560 473 c 0
 500 423 420 412 342 412 c 0
 278 412 213 396 170 350 c 1
 125 300 113 230 113 163 c 2
 113 56 l 1
 629 56 l 1
 629 0 l 1
 51 0 l 1
 51 163 l 2
 51 246 67 332 124 392 c 0
 179 450 261 468 342 468 c 0
 403 468 466 476 513 515 c 0
 554 549 571 603 571 656 c 0
 571 709 554 763 513 797 c 0
 466 836 403 844 342 844 c 0
 281 844 217 836 170 797 c 0
 157 786 147 774 138 760 c 1
 81 786 l 1
EndSplineSet
EndChar

StartChar: three
Encoding: 51 51 11
Width: 684
GlyphClass: 2
Flags: MW
HStem: -20 56<311.5 372.5 311.5 381> 412 56<342 372.5> 844 56<311.5 372.5>
VStem: 571 61<197.5 250.5 629.5 682.5>
CounterMasks: 1 e0
LayerCount: 2
Fore
SplineSet
81 786 m 1
 92 806 106 824 124 839 c 0
 184 889 264 900 342 900 c 0
 420 900 500 889 560 839 c 0
 612 795 632 725 632 656 c 0
 632 587 612 517 560 473 c 0
 543 459 525 448 506 440 c 1
 525 432 543 421 560 407 c 0
 612 363 632 293 632 224 c 0
 632 155 612 85 560 41 c 0
 500 -9 420 -20 342 -20 c 0
 264 -20 184 -9 124 41 c 0
 106 56 92 74 81 94 c 1
 136 124 l 1
 145 109 156 95 170 83 c 0
 217 44 281 36 342 36 c 0
 403 36 466 44 513 83 c 0
 554 117 571 171 571 224 c 0
 571 277 554 331 513 365 c 0
 466 404 403 412 342 412 c 1
 342 468 l 1
 403 468 466 476 513 515 c 0
 554 549 571 603 571 656 c 0
 571 709 554 763 513 797 c 0
 466 836 403 844 342 844 c 0
 281 844 217 836 170 797 c 0
 157 786 147 774 138 760 c 1
 81 786 l 1
EndSplineSet
EndChar

StartChar: four
Encoding: 52 52 12
Width: 684
GlyphClass: 2
Flags: MW
HStem: 0 21G<414 414 414 475> 324 56<90 414 90 414 54 414 475 629> 839 41<413.5 414>
VStem: 414 61<0 324 0 324 380 839 839 839>
LayerCount: 2
Fore
SplineSet
414 0 m 1
 414 324 l 1
 54 324 l 1
 54 424 l 1
 375 880 l 1
 475 880 l 1
 475 380 l 1
 629 380 l 1
 629 324 l 1
 475 324 l 1
 475 0 l 1
 414 0 l 1
414 380 m 1
 414 839 l 1
 413 839 90 380 90 380 c 1
 414 380 l 1
EndSplineSet
EndChar

StartChar: five
Encoding: 53 53 13
Width: 684
GlyphClass: 2
Flags: MW
HStem: -20 56<310.5 373.5 310.5 381.5> 500 56<323.5 373.5> 824 56<232 601 232 232>
VStem: 170 62<543 824 543 880 543 880> 571 61<236 300>
LayerCount: 2
Fore
SplineSet
170 519 m 1
 170 880 l 1
 601 880 l 1
 601 824 l 1
 232 824 l 1
 232 543 l 1
 267 552 305 556 342 556 c 0
 421 556 503 540 560 484 c 0
 616 428 632 347 632 268 c 0
 632 189 616 108 560 52 c 0
 503 -4 421 -20 342 -20 c 0
 262 -20 180 -4 124 52 c 0
 107 69 94 87 84 108 c 1
 140 136 l 1
 148 121 158 107 170 94 c 0
 214 49 279 36 342 36 c 0
 405 36 469 49 513 94 c 0
 558 139 571 204 571 268 c 0
 571 332 558 397 513 442 c 0
 469 487 405 500 342 500 c 0
 293 500 243 492 203 467 c 1
 153 508 l 1
 159 512 164 516 170 519 c 1
EndSplineSet
EndChar

StartChar: six
Encoding: 54 54 14
Width: 684
GlyphClass: 2
Flags: MW
HStem: -20 56<310.5 373.5 310.5 381.5> 500 56<310.5 373.5> 844 56<309 376.5>
VStem: 51 62<268 300 472 556> 571 61<236 300>
LayerCount: 2
Fore
SplineSet
113 472 m 1
 167 535 255 556 342 556 c 0
 421 556 503 540 560 484 c 0
 616 428 632 347 632 268 c 0
 632 189 616 108 560 52 c 0
 503 -4 421 -20 342 -20 c 0
 262 -20 180 -4 124 52 c 0
 68 108 51 189 51 268 c 2
 51 556 l 2
 51 648 65 744 124 814 c 0
 177 877 260 900 342 900 c 0
 424 900 507 877 560 814 c 0
 564 809 567 804 571 799 c 1
 520 763 l 1
 483 819 411 844 342 844 c 0
 276 844 211 823 170 772 c 0
 123 712 113 633 113 556 c 2
 113 472 l 1
113 268 m 0
 113 204 126 139 170 94 c 0
 214 49 279 36 342 36 c 0
 405 36 469 49 513 94 c 0
 558 139 571 204 571 268 c 0
 571 332 558 397 513 442 c 0
 469 487 405 500 342 500 c 0
 279 500 214 487 170 442 c 0
 126 397 113 332 113 268 c 0
EndSplineSet
EndChar

StartChar: seven
Encoding: 55 55 15
Width: 610
GlyphClass: 2
Flags: MW
HStem: 0 21G<51 120 51 51> 824 56<51 559 51 515>
LayerCount: 2
Fore
SplineSet
51 824 m 1
 51 880 l 1
 559 880 l 1
 559 780 l 1
 120 0 l 1
 51 0 l 1
 515 824 l 1
 51 824 l 1
EndSplineSet
EndChar

StartChar: eight
Encoding: 56 56 16
Width: 684
GlyphClass: 2
Flags: MW
HStem: -20 56<311 372.5 311 381> 434 56<311.5 372.5 311.5 372.5> 844 56<311.5 372.5>
VStem: 51 62<207 263 207 271 641.5 692.5> 571 61<207 263 641.5 692.5>
LayerCount: 2
Fore
SplineSet
342 844 m 0
 281 844 218 837 170 800 c 0
 130 769 113 718 113 667 c 0
 113 616 130 565 170 534 c 0
 218 497 281 490 342 490 c 0
 403 490 465 497 513 534 c 0
 553 565 571 616 571 667 c 0
 571 718 553 769 513 800 c 0
 465 837 403 844 342 844 c 0
342 900 m 0
 419 900 499 890 560 842 c 1
 611 800 632 734 632 667 c 0
 632 600 611 534 560 492 c 0
 543 479 525 469 506 461 c 1
 525 452 544 440 560 426 c 0
 613 379 632 307 632 235 c 0
 632 163 613 91 560 44 c 0
 501 -8 420 -20 342 -20 c 0
 263 -20 183 -8 124 44 c 0
 70 91 51 163 51 235 c 0
 51 307 70 379 124 426 c 0
 140 440 158 452 177 461 c 1
 158 469 140 479 124 492 c 0
 72 534 51 600 51 667 c 0
 51 734 72 800 124 842 c 0
 184 890 264 900 342 900 c 0
342 434 m 0
 280 434 217 425 170 384 c 0
 128 348 113 291 113 235 c 0
 113 179 128 122 170 86 c 0
 217 45 280 36 342 36 c 0
 403 36 467 45 513 86 c 1
 555 122 571 179 571 235 c 0
 571 291 555 348 513 384 c 1
 467 425 403 434 342 434 c 0
EndSplineSet
EndChar

StartChar: nine
Encoding: 57 57 17
Width: 684
GlyphClass: 2
Flags: MW
HStem: -20 56<307.5 374.5 307.5 383> 324 56<310.5 373.5 310.5 384.5> 844 56<310.5 373.5>
VStem: 51 62<580 644> 571 61<324 408 408 408 580 612>
LayerCount: 2
Fore
SplineSet
163 117 m 1
 201 61 273 36 342 36 c 0
 407 36 473 57 513 108 c 0
 561 168 571 247 571 324 c 2
 571 408 l 1
 517 345 427 324 342 324 c 0
 262 324 180 340 124 396 c 0
 68 452 51 533 51 612 c 0
 51 691 68 772 124 828 c 0
 180 884 262 900 342 900 c 0
 421 900 503 884 560 828 c 0
 616 772 632 691 632 612 c 2
 632 324 l 2
 632 232 619 136 560 66 c 0
 507 3 424 -20 342 -20 c 0
 257 -20 157 8 113 81 c 1
 163 117 l 1
571 612 m 0
 571 676 558 741 513 786 c 0
 469 831 405 844 342 844 c 0
 279 844 214 831 170 786 c 0
 126 741 113 676 113 612 c 0
 113 548 126 483 170 438 c 0
 214 393 279 380 342 380 c 0
 405 380 469 393 513 438 c 0
 558 483 571 548 571 612 c 0
EndSplineSet
EndChar

StartChar: colon
Encoding: 58 58 18
Width: 164
GlyphClass: 2
Flags: MW
HStem: 0 94<67.5 96.5> 557 94<67.5 96.5>
VStem: 35 94<32.5 61.5 589.5 618.5>
LayerCount: 2
Fore
SplineSet
35 604 m 0
 35 633 53 651 82 651 c 0
 111 651 129 633 129 604 c 0
 129 575 111 557 82 557 c 0
 53 557 35 575 35 604 c 0
35 47 m 0
 35 76 53 94 82 94 c 0
 111 94 129 76 129 47 c 0
 129 18 111 0 82 0 c 0
 53 0 35 18 35 47 c 0
EndSplineSet
EndChar

StartChar: semicolon
Encoding: 59 59 19
Width: 164
GlyphClass: 2
Flags: MW
HStem: 557 94<67.5 96.5>
VStem: 35 94<589.5 618.5> 51 62<-78 121 -78 121>
LayerCount: 2
Fore
SplineSet
35 604 m 0xc0
 35 633 53 651 82 651 c 0
 111 651 129 633 129 604 c 0
 129 575 111 557 82 557 c 0
 53 557 35 575 35 604 c 0xc0
51 121 m 1xa0
 113 121 l 1
 113 -78 l 1
 51 -78 l 1
 51 121 l 1xa0
EndSplineSet
EndChar

StartChar: A
Encoding: 65 65 20
Width: 831
GlyphClass: 2
Flags: MW
HStem: 0 21G<51 51 51 110 715 715 715 779> 413 56<277 548 277 568 257 548> 860 20G<365 465 465 465>
LayerCount: 2
Fore
SplineSet
51 0 m 1
 365 880 l 1
 465 880 l 1
 779 0 l 1
 715 0 l 1
 568 413 l 1
 257 413 l 1
 110 0 l 1
 51 0 l 1
277 469 m 1
 548 469 l 1
 412 849 l 1
 277 469 l 1
EndSplineSet
EndChar

StartChar: B
Encoding: 66 66 21
Width: 684
GlyphClass: 2
Flags: HMW
HStem: 0 56<113 342 113 342> 452 56<113 342 113 342> 824 56<113 342 113 113>
VStem: 51 62<56 452 508 824> 571 61<226 282 643 689.5>
LayerCount: 2
UndoRedoHistory
Layer: 0
Undoes
EndUndoes
Redoes
EndRedoes
EndUndoRedoHistory
Back
SplineSet
90 452 m 5
 342 452 l 6
 594.5 452 620 580 620 666 c 4
 620 824.967773438 494.728515625 880 342 880 c 6
 90 880 l 5
 90 824 l 5
 342 824 l 6
 457.575195312 824 559 786.091796875 559 666 c 4
 559 546.717773438 456.290039062 508 342 508 c 6
 90 508 l 5
 90 452 l 5
312 452 m 5
 392.5 452 l 6
 525.244140625 452 610.5 388.528320312 610.5 254 c 4
 610.5 119.93359375 523.950195312 56 392.5 56 c 6
 75 56 l 5
 75 0 l 5
 392.5 0 l 6
 561.294921875 0 671.5 81.9794921875 671.5 254 c 4
 671.5 478 482 508 392.5 508 c 6
 312 508 l 5
 312 452 l 5
EndSplineSet
UndoRedoHistory
Layer: 1
Undoes
EndUndoes
Redoes
EndRedoes
EndUndoRedoHistory
Fore
SplineSet
90 454 m 5
 342 454 l 6
 594.5 454 620 580 620 666 c 4
 620 824.967773438 494.728515625 880 342 880 c 6
 90 880 l 5
 90 824 l 5
 342 824 l 6
 457.575195312 824 559 786.091796875 559 666 c 4
 559 546.717773438 456.290039062 505 342 505 c 6
 90 505 l 5
 90 454 l 5
298 454 m 5
 378.5 454 l 6
 511.244140625 454 596.5 388.528320312 596.5 254 c 4
 596.5 119.93359375 509.950195312 56 378.5 56 c 6
 61 56 l 5
 61 0 l 5
 378.5 0 l 6
 547.294921875 0 657.5 81.9794921875 657.5 254 c 4
 657.5 478 468 505 378.5 505 c 6
 298 505 l 5
 298 454 l 5
113 0 m 5
 113 880 l 5
 51 880 l 5
 51 0 l 5
 113 0 l 5
EndSplineSet
EndChar

StartChar: C
Encoding: 67 67 22
Width: 904
GlyphClass: 2
Flags: MW
HStem: -20 56<404 500 404 508.5> 844 56<404 500>
VStem: 51 62<386 494 386 502>
LayerCount: 2
Fore
SplineSet
798 719 m 1
 742 690 l 1
 732 708 720 726 706 743 c 0
 645 816 548 844 452 844 c 0
 356 844 259 816 198 743 c 0
 128 660 113 548 113 440 c 0
 113 332 128 220 198 137 c 0
 259 64 356 36 452 36 c 0
 548 36 645 64 706 137 c 0
 720 154 732 172 742 190 c 1
 798 161 l 1
 785 138 770 116 752 95 c 0
 679 10 565 -20 452 -20 c 0
 339 -20 225 10 152 95 c 1
 70 188 51 316 51 440 c 0
 51 564 70 692 152 785 c 1
 225 870 339 900 452 900 c 0
 565 900 679 870 752 785 c 0
 770 764 785 742 798 719 c 1
EndSplineSet
EndChar

StartChar: D
Encoding: 68 68 23
Width: 794
GlyphClass: 2
Flags: MW
HStem: 0 56<113 255 113 255> 824 56<113 113 113 255>
VStem: 51 62<56 824 56 880 56 880> 681 61<386.5 493.5>
LayerCount: 2
Fore
SplineSet
51 0 m 1
 51 880 l 1
 255 880 l 2
 387 880 523 858 621 770 c 0
 711 688 742 563 742 440 c 0
 742 317 711 192 621 110 c 0
 523 22 387 0 255 0 c 2
 51 0 l 1
113 824 m 1
 113 56 l 1
 255 56 l 2
 370 56 489 75 574 152 c 0
 654 224 681 333 681 440 c 0
 681 547 654 656 574 728 c 0
 489 805 370 824 255 824 c 2
 113 824 l 1
EndSplineSet
EndChar

StartChar: E
Encoding: 69 69 24
Width: 684
GlyphClass: 2
Flags: MW
HStem: 0 56<113 632 113 632> 430 56<113 601 113 601> 824 56<113 632 113 113>
VStem: 51 62<56 430 486 824>
LayerCount: 2
Fore
SplineSet
51 0 m 1
 51 880 l 1
 632 880 l 1
 632 824 l 1
 113 824 l 1
 113 486 l 1
 601 486 l 1
 601 430 l 1
 113 430 l 1
 113 56 l 1
 632 56 l 1
 632 0 l 1
 51 0 l 1
EndSplineSet
EndChar

StartChar: F
Encoding: 70 70 25
Width: 684
GlyphClass: 2
Flags: MW
HStem: 0 21G<51 51 51 113> 430 56<113 601 113 601> 824 56<113 632 113 113>
VStem: 51 62<0 430 486 824>
LayerCount: 2
Fore
SplineSet
51 0 m 1
 51 880 l 1
 632 880 l 1
 632 824 l 1
 113 824 l 1
 113 486 l 1
 601 486 l 1
 601 430 l 1
 113 430 l 1
 113 0 l 1
 51 0 l 1
EndSplineSet
EndChar

StartChar: G
Encoding: 71 71 26
Width: 904
GlyphClass: 2
Flags: MW
HStem: -20 56<404 500 404 508.5> 0 21G<791 853 791 791> 402 56<542 790 542 853> 844 56<404 508>
VStem: 51 62<386 494 386 502> 791 62<0 149 149 149>
LayerCount: 2
Fore
SplineSet
730 710 m 1xbc
 677 801 564 844 452 844 c 0
 356 844 259 816 198 743 c 0
 128 660 113 548 113 440 c 0
 113 332 128 220 198 137 c 0
 259 64 356 36 452 36 c 0xbc
 548 36 645 64 706 137 c 0
 768 210 786 306 790 402 c 1
 542 402 l 1
 542 458 l 1
 853 458 l 1
 853 0 l 1
 791 0 l 1x7c
 791 149 l 1
 780 130 767 112 752 95 c 0
 679 10 565 -20 452 -20 c 0
 339 -20 225 10 152 95 c 1
 70 188 51 316 51 440 c 0
 51 564 70 692 152 785 c 1
 225 870 339 900 452 900 c 0
 565 900 679 870 752 785 c 0
 764 772 774 758 783 744 c 1
 730 710 l 1xbc
EndSplineSet
EndChar

StartChar: H
Encoding: 72 72 27
Width: 757
GlyphClass: 2
Flags: MW
HStem: 0 21G<51 113 51 51 644 706 644 644> 430 56<113 644 113 644> 860 20G<51 113 113 113 644 706 706 706>
VStem: 51 62<0 430 0 486 486 880> 644 62<0 430 430 430 486 880>
LayerCount: 2
Fore
SplineSet
706 0 m 1
 644 0 l 1
 644 430 l 1
 113 430 l 1
 113 0 l 1
 51 0 l 1
 51 880 l 1
 113 880 l 1
 113 486 l 1
 644 486 l 1
 644 880 l 1
 706 880 l 1
 706 0 l 1
EndSplineSet
EndChar

StartChar: I
Encoding: 73 73 28
Width: 164
GlyphClass: 2
Flags: MW
HStem: 0 21G<51 51 51 113> 860 20G<51 113 113 113>
VStem: 51 62<0 880 0 880>
LayerCount: 2
Fore
SplineSet
51 0 m 1
 51 880 l 1
 113 880 l 1
 113 0 l 1
 51 0 l 1
EndSplineSet
EndChar

StartChar: J
Encoding: 74 74 29
Width: 684
GlyphClass: 2
Flags: MW
HStem: -20 56<310 374 310 382> 860 20G<571 632 632 632>
VStem: 571 61<289 880>
LayerCount: 2
Fore
SplineSet
632 880 m 1
 632 289 l 2
 632 205 617 118 560 57 c 0
 505 -1 422 -20 342 -20 c 0
 261 -20 179 -1 124 57 c 0
 102 80 87 107 75 136 c 1
 134 159 l 1
 142 137 154 117 170 99 c 0
 213 52 278 36 342 36 c 0
 406 36 471 52 513 99 c 0
 559 150 571 221 571 289 c 2
 571 880 l 1
 632 880 l 1
EndSplineSet
EndChar

StartChar: K
Encoding: 75 75 30
Width: 757
GlyphClass: 2
Flags: MW
HStem: 0 21G<51 113 51 51 632 706 632 632> 860 20G<51 113 113 113 624 706 706 706>
VStem: 51 62<0 391 458 880>
LayerCount: 2
Fore
SplineSet
624 880 m 1
 706 880 l 1
 325 566 l 1
 706 0 l 1
 632 0 l 1
 282 530 l 1
 113 391 l 1
 113 0 l 1
 51 0 l 1
 51 880 l 1
 113 880 l 1
 113 458 l 1
 253 574 l 1
 624 880 l 1
EndSplineSet
EndChar

StartChar: L
Encoding: 76 76 31
Width: 647
GlyphClass: 2
Flags: MW
HStem: 0 56<113 595 113 595> 860 20G<51 113 113 113>
VStem: 51 62<56 880 56 880 56 880>
LayerCount: 2
Fore
SplineSet
51 0 m 1
 51 880 l 1
 113 880 l 1
 113 56 l 1
 595 56 l 1
 595 0 l 1
 51 0 l 1
EndSplineSet
EndChar

StartChar: M
Encoding: 77 77 32
Width: 904
GlyphClass: 2
Flags: MW
HStem: 0 21G<51 51 51 107 399 399 399 499 791 791 791 853> 860 20G<51 151 151 151.5 753 853 853 853>
VStem: 51 56<0 821 0 880> 791 62<0 822 822 822>
LayerCount: 2
Fore
SplineSet
51 0 m 1
 51 880 l 1
 151 880 l 2
 152 880 452 33 452 33 c 1
 753 880 l 1
 853 880 l 1
 853 0 l 1
 791 0 l 1
 791 822 l 1
 499 0 l 1
 399 0 l 1
 399 0 108 821 107 821 c 1
 107 821 108 0 107 0 c 2
 51 0 l 1
EndSplineSet
EndChar

StartChar: N
Encoding: 78 78 33
Width: 757
GlyphClass: 2
Flags: MW
HStem: 0 21G<54 54 54 110 603 603 603 703> 860 20G<54 154 154 154 647 703 703 703>
VStem: 54 56<0 841 0 880 0 880> 647 56<39 880 0 880>
LayerCount: 2
Fore
SplineSet
54 0 m 1
 54 880 l 1
 154 880 l 1
 647 39 l 1
 647 880 l 1
 703 880 l 1
 703 0 l 1
 603 0 l 1
 110 841 l 1
 110 0 l 1
 54 0 l 1
EndSplineSet
EndChar

StartChar: O
Encoding: 79 79 34
Width: 904
GlyphClass: 2
Flags: MW
HStem: -20 56<404 500 404 508.5> 844 56<404 500>
VStem: 51 62<386 494 386 502> 791 62<386 494>
LayerCount: 2
Fore
SplineSet
452 844 m 0
 356 844 259 816 198 743 c 0
 128 660 113 548 113 440 c 0
 113 332 128 220 198 137 c 0
 259 64 356 36 452 36 c 0
 548 36 645 64 706 137 c 0
 776 220 791 332 791 440 c 0
 791 548 776 660 706 743 c 0
 645 816 548 844 452 844 c 0
452 900 m 0
 565 900 679 870 752 785 c 1
 834 692 853 564 853 440 c 0
 853 316 834 188 752 95 c 1
 679 10 565 -20 452 -20 c 0
 339 -20 225 10 152 95 c 1
 70 188 51 316 51 440 c 0
 51 564 70 692 152 785 c 1
 225 870 339 900 452 900 c 0
EndSplineSet
EndChar

StartChar: P
Encoding: 80 80 35
Width: 684
GlyphClass: 2
Flags: HMW
HStem: 0 21G<51 51 51 113> 430 56<113 342 113 342> 824 56<113 113 113 342>
VStem: 51 62<0 430 0 486 486 824> 571 61<630.5 679.5>
LayerCount: 2
UndoRedoHistory
Layer: 1
Undoes
EndUndoes
Redoes
EndRedoes
EndUndoRedoHistory
Fore
SplineSet
90 431 m 1
 342 431 l 2
 594.5 431 620 576 620 662 c 0
 620 820.967773438 494.728515625 880 342 880 c 2
 90 880 l 1
 90 824 l 1
 342 824 l 2
 457.575195312 824 559 782.091796875 559 662 c 0
 559 542.717773438 496.290039062 484 342 484 c 6
 90 484 l 5
 90 431 l 1
113 0 m 1
 113 880 l 1
 51 880 l 1
 51 0 l 1
 113 0 l 1
EndSplineSet
EndChar

StartChar: Q
Encoding: 81 81 36
Width: 904
GlyphClass: 2
Flags: MW
HStem: -20 56<404 492.5 404 499.5> 844 56<404 500>
VStem: 51 62<386 494 386 502> 791 62<387.5 494>
LayerCount: 2
Fore
SplineSet
711 143 m 1
 776 225 791 335 791 440 c 0
 791 548 776 660 706 743 c 0
 645 816 548 844 452 844 c 0
 356 844 259 816 198 743 c 0
 128 660 113 548 113 440 c 0
 113 332 128 220 198 137 c 0
 259 64 356 36 452 36 c 0
 533 36 615 56 675 106 c 1
 402 426 l 1
 469 426 l 1
 711 143 l 1
715 59 m 1
 643 1 547 -20 452 -20 c 0
 339 -20 225 10 152 95 c 1
 70 188 51 316 51 440 c 0
 51 564 70 692 152 785 c 1
 225 870 339 900 452 900 c 0
 565 900 679 870 752 785 c 1
 834 692 853 564 853 440 c 0
 853 316 834 188 752 95 c 1
 839 -6 l 1
 771 -6 l 1
 715 59 l 1
EndSplineSet
EndChar

StartChar: R
Encoding: 82 82 37
Width: 684
GlyphClass: 2
Flags: MW
HStem: 0 21G<51 113 51 51 558 632 558 558> 430 56<113 311 113 342 342 372 113 378 113 378> 824 56<113 113 113 342>
VStem: 51 62<0 430 0 486 486 824> 571 61<630.5 679.5>
LayerCount: 2
Fore
SplineSet
632 0 m 1
 558 0 l 1
 311 430 l 1
 113 430 l 1
 113 0 l 1
 51 0 l 1
 51 880 l 1
 342 880 l 2
 419 880 499 871 560 824 c 1
 610 784 632 720 632 655 c 0
 632 590 610 525 560 486 c 0
 499 439 419 430 342 430 c 2
 378 430 l 1
 632 0 l 1
113 824 m 1
 113 486 l 1
 342 486 l 2
 402 486 465 492 513 528 c 0
 553 557 571 606 571 655 c 0
 571 704 553 753 513 782 c 0
 465 818 402 824 342 824 c 2
 113 824 l 1
EndSplineSet
EndChar

StartChar: S
Encoding: 83 83 38
Width: 720
GlyphClass: 2
Flags: MW
HStem: -20 56<319 393 316.5 401> 412 56<327.5 393> 844 56<327.5 405>
VStem: 51 62<629 683 629 691> 607 62<197 251>
CounterMasks: 1 e0
LayerCount: 2
Fore
SplineSet
138 126 m 1
 175 56 273 36 360 36 c 0
 426 36 493 43 545 83 c 0
 588 116 607 170 607 224 c 0
 607 278 588 332 545 365 c 0
 493 405 426 412 360 412 c 0
 278 412 193 422 129 473 c 0
 74 516 51 586 51 656 c 0
 51 726 74 796 129 839 c 0
 193 890 278 900 360 900 c 0
 469 900 589 873 637 786 c 1
 583 754 l 1
 543 823 450 844 360 844 c 0
 295 844 227 837 175 797 c 0
 132 764 113 710 113 656 c 0
 113 602 132 548 175 515 c 0
 227 475 295 468 360 468 c 0
 442 468 527 458 592 407 c 0
 646 364 669 294 669 224 c 0
 669 154 646 84 592 41 c 0
 527 -10 442 -20 360 -20 c 0
 278 -20 193 -10 129 41 c 0
 110 56 95 74 83 94 c 1
 138 126 l 1
EndSplineSet
EndChar

StartChar: T
Encoding: 84 84 39
Width: 720
GlyphClass: 2
Flags: MW
HStem: 0 21G<329 391 329 329> 824 56<54 666 54 329 391 391 391 666>
VStem: 329 62<0 824 0 824>
LayerCount: 2
Fore
SplineSet
54 824 m 1
 54 880 l 1
 666 880 l 1
 666 824 l 1
 391 824 l 1
 391 0 l 1
 329 0 l 1
 329 824 l 1
 54 824 l 1
EndSplineSet
EndChar

StartChar: U
Encoding: 85 85 40
Width: 757
GlyphClass: 2
Flags: MW
HStem: -20 56<342.5 415 342.5 423.5> 860 20G<51 113 113 113 644 706 706 706>
VStem: 51 62<289 880> 644 62<289 880>
LayerCount: 2
Fore
SplineSet
706 880 m 1
 706 289 l 2
 706 203 686 116 624 57 c 0
 559 -4 468 -20 379 -20 c 0
 289 -20 198 -4 133 57 c 0
 71 116 51 203 51 289 c 2
 51 880 l 1
 113 880 l 1
 113 289 l 2
 113 219 129 148 179 99 c 1
 232 49 306 36 379 36 c 0
 451 36 525 49 578 99 c 1
 628 148 644 219 644 289 c 2
 644 880 l 1
 706 880 l 1
EndSplineSet
EndChar

StartChar: V
Encoding: 86 86 41
Width: 757
GlyphClass: 2
Flags: MW
HStem: 0 21G<328.5 329 329 429> 860 20G<51 115 115 115 648 706 706 706>
VStem: 648 58<880 880>
LayerCount: 2
Fore
SplineSet
51 880 m 1
 115 880 l 1
 381 33 l 2
 382 33 648 880 648 880 c 1
 706 880 l 1
 429 0 l 1
 329 0 l 2
 328 0 51 880 51 880 c 1
EndSplineSet
EndChar

StartChar: W
Encoding: 87 87 42
Width: 1051
GlyphClass: 2
Flags: MW
HStem: 0 21G<334 434 334 334 617 717 617 617> 860 20G<51 115 115 115 334 398 398 398 659 717 717 717 942 1000 1000 1000>
LayerCount: 2
Fore
SplineSet
334 880 m 1
 398 880 l 1
 528 474 l 1
 659 880 l 1
 717 880 l 1
 557 384 l 1
 670 33 l 1
 942 880 l 1
 1000 880 l 1
 717 0 l 1
 617 0 l 1
 526 285 l 1
 434 0 l 1
 334 0 l 1
 51 880 l 1
 115 880 l 1
 387 33 l 1
 497 374 l 1
 334 880 l 1
EndSplineSet
EndChar

StartChar: X
Encoding: 88 88 43
Width: 757
GlyphClass: 2
Flags: MW
HStem: 0 21G<51 119 51 51 632 706 632 632> 860 20G<51 125 125 125 620 687 687 687>
LayerCount: 2
Fore
SplineSet
51 880 m 1
 125 880 l 1
 375 501 l 1
 620 880 l 1
 687 880 l 1
 409 450 l 1
 706 0 l 1
 632 0 l 1
 373 393 l 1
 119 0 l 1
 51 0 l 1
 338 445 l 1
 51 880 l 1
EndSplineSet
EndChar

StartChar: Y
Encoding: 89 89 44
Width: 757
GlyphClass: 2
Flags: MW
HStem: 0 21G<348 409 348 348> 860 20G<51 122 122 122 642 706 706 706>
VStem: 348 61<0 458 0 458>
LayerCount: 2
Fore
SplineSet
51 880 m 1
 122 880 l 1
 382 509 l 1
 642 880 l 1
 706 880 l 1
 409 458 l 1
 409 0 l 1
 348 0 l 1
 348 458 l 1
 51 880 l 1
EndSplineSet
EndChar

StartChar: Z
Encoding: 90 90 45
Width: 757
GlyphClass: 2
Flags: MW
HStem: 0 56<88 706 88 706 51 706> 824 56<51 706 51 669>
LayerCount: 2
Fore
SplineSet
51 824 m 1
 51 880 l 1
 706 880 l 1
 706 780 l 1
 88 56 l 1
 706 56 l 1
 706 0 l 1
 51 0 l 1
 51 100 l 1
 669 824 l 1
 51 824 l 1
EndSplineSet
EndChar

StartChar: a
Encoding: 97 97 46
Width: 573
GlyphClass: 2
Flags: HMW
HStem: -20 56<263 310.5 263 318.5> 0 21G<460 522 460 460> 363 56<263 310.5> 615 56<256 318 243.5 329>
VStem: 51 62<176.5 222 176.5 229.5> 460 62<0 32 32 32 176.5 222 367 503 0 547>
LayerCount: 2
UndoRedoHistory
Layer: 0
Undoes
EndUndoes
Redoes
EndRedoes
EndUndoRedoHistory
Back
SplineSet
460 74 m 5
 394.467270372 8.89013057822 321.109951889 -20.4121478889 254.811483493 -20.4121478889 c 4
 142.838133301 -20.4121478889 51 63.1719663789 51 199 c 4
 51 342.225288985 144.463867188 378 287 378 c 4
 460 378 l 5
 459 322 l 29
 391.919921875 322 287 322 287 322 c 4
 181.041992188 322 113 306.357118151 113 199 c 4
 113 80.6089507003 188.450468854 36.3036038448 269.850655651 36.3036038448 c 4
 348.722361412 36.3036038448 433.179901383 77.8992432595 460 134 c 13xbc
 460 74 l 5
EndSplineSet
UndoRedoHistory
Layer: 1
Undoes
EndUndoes
Redoes
EndRedoes
EndUndoRedoHistory
Fore
SplineSet
460 42 m 1x3c
 405.754688017 2.95287865662 333.529039727 -20.470011933 264.877220077 -20.470011933 c 0
 153.210980874 -20.470011933 51 41.499797925 51 199 c 0
 51 342.225288985 144.463867188 378 287 378 c 0
 460 378 l 1
 459 322 l 25
 391.919921875 322 287 322 287 322 c 0
 181.041992188 322 113 306.357118151 113 199 c 0
 113 76.2868092333 190.10989178 30.73516794 274.368733707 30.73516794 c 0
 344.926563205 30.73516794 420.497439076 62.6772692936 460 108 c 9
 460 42 l 1x3c
287 615 m 0
 225 615 152 604 126 555 c 1
 71 585 l 1
 110 651 200 671 287 671 c 0
 349 671 413 665 463 629 c 0
 503 601 522 552 522 503 c 2
 522 0 l 1
 460 0 l 1x7c
 460 54 l 1
 460 378 l 1
 460 503 l 2
 460 591 371 615 287 615 c 0
EndSplineSet
EndChar

StartChar: b
Encoding: 98 98 47
Width: 686
GlyphClass: 2
Flags: HMWO
HStem: 1130 21G<68 130 68 68> 855 56<319 383 319 391> 220 56<319 383> 240 20G<68 130 130 130>
VStem: 68 62<813 1151 527 604 240 318> 573 61<527 604>
LayerCount: 2
UndoRedoHistory
Layer: 1
Undoes
EndUndoes
Redoes
EndRedoes
EndUndoRedoHistory
Fore
SplineSet
114 79 m 1xec
 163 11 265 -20 351 -20 c 0
 550 -20 634 116 634 325 c 0
 634 536 550 671 351 671 c 0
 265 671 182 637 130 578 c 1
 130 511 l 1
 169 561 237 615 351 615 c 0
 513 615 573 488 573 325 c 0
 573 162 512 36 351 36 c 0
 235 36 153 88 114 138 c 1
 114 79 l 1xec
131 911 m 1xcc
 69 911 l 1
 69 0 l 1
 131 0 l 1
 131 911 l 1xcc
EndSplineSet
EndChar

StartChar: c
Encoding: 99 99 48
Width: 669
GlyphClass: 2
Flags: MW
HStem: -20 56<302.5 334 302.5 334 334 366 302.5 374.5> 615 56<302.5 366>
VStem: 51 62<287.5 364 287.5 372>
LayerCount: 2
Fore
SplineSet
334 36 m 1
 334 -20 l 1
 254 -20 173 4 122 66 c 0
 64 138 51 233 51 326 c 0
 51 418 64 513 122 585 c 0
 173 647 254 671 334 671 c 0
 415 671 496 647 547 585 c 0
 562 566 574 547 583 525 c 1
 526 500 l 1
 519 515 511 529 500 543 c 0
 462 593 398 615 334 615 c 0
 271 615 207 593 168 543 c 1
 122 482 113 402 113 326 c 0
 113 249 122 169 168 108 c 1
 207 58 271 36 334 36 c 1
334 36 m 1
 334 -20 l 1
 415 -20 496 4 547 66 c 0
 562 85 574 105 583 126 c 1
 526 151 l 1
 519 136 511 122 500 108 c 0
 462 58 398 36 334 36 c 1
EndSplineSet
EndChar

StartChar: d
Encoding: 100 100 49
Width: 686
GlyphClass: 2
Flags: HMW
HStem: -260 21G<51 113 51 51> -20 56<302 366 302 374> 615 56<302 366> 631 20G<51 113 113 113>
VStem: 51 62<-260 78 287 364 573 651> 556 61<287 364>
LayerCount: 2
UndoRedoHistory
Layer: 1
Undoes
EndUndoes
Redoes
EndRedoes
EndUndoRedoHistory
Fore
SplineSet
572 79 m 1xec
 523 11 421 -20 335 -20 c 0
 136 -20 52 116 52 325 c 0
 52 536 136 671 335 671 c 0
 421 671 504 637 556 578 c 1
 556 511 l 1
 517 561 449 615 335 615 c 0
 173 615 113 488 113 325 c 0
 113 162 174 36 335 36 c 0
 451 36 533 88 572 138 c 1
 572 79 l 1xec
555 911 m 1xcc
 617 911 l 1
 617 0 l 1
 555 0 l 1
 555 911 l 1xcc
EndSplineSet
EndChar

StartChar: e
Encoding: 101 101 50
Width: 669
GlyphClass: 2
Flags: HMW
HStem: -20 56<302.5 334 302.5 334 334 371 302.5 374.5> 298 56<113 556 113 617 113 556> 615 56<302.5 366>
VStem: 51 62<298 298 298 354 298 372> 556 61<298 354>
LayerCount: 2
UndoRedoHistory
Layer: 0
Undoes
EndUndoes
Redoes
EndRedoes
EndUndoRedoHistory
UndoRedoHistory
Layer: 1
Undoes
EndUndoes
Redoes
EndRedoes
EndUndoRedoHistory
Fore
SplineSet
543 131 m 5
 591 101 l 5
 544.004882812 20.4365234375 450.73046875 -20 350 -20 c 5
 350 36 l 5
 424 36 502 65 543 131 c 5
556 306 m 1
 556 552 462 615 334 615 c 0
 174.945380861 615 113 485.504245785 113 326 c 0
 113 164.539058604 189.407106181 36 350 36 c 1
 350 -20 l 1
 151.3828125 -20 51 132.852087771 51 326 c 0
 51 518.037839963 135.520019744 671 334 671 c 0
 532.554202249 671 617 520.311523438 617 326 c 2
 617 306 l 1
 556 306 l 1
588 307 m 1
 93 307 l 1
 93 356 l 1
 588 356 l 1
 588 307 l 1
EndSplineSet
EndChar

StartChar: f
Encoding: 102 102 51
Width: 537
GlyphClass: 2
Flags: MW
HStem: 0 21G<237 299 237 237> 595 56<82 237 82 237 299 454> 844 56<364 392.5>
VStem: 237 62<0 595 0 595 651 748>
LayerCount: 2
Fore
SplineSet
445 796 m 1
 435 826 410 844 375 844 c 0
 353 844 332 837 318 820 c 0
 302 800 299 773 299 748 c 2
 299 651 l 1
 454 651 l 1
 454 595 l 1
 299 595 l 1
 299 0 l 1
 237 0 l 1
 237 595 l 1
 82 595 l 1
 82 651 l 1
 237 651 l 1
 237 748 l 2
 237 789 244 831 272 862 c 0
 298 890 337 900 375 900 c 0
 414 900 453 890 479 862 c 0
 491 848 499 832 505 814 c 1
 445 796 l 1
EndSplineSet
EndChar

StartChar: g
Encoding: 103 103 52
Width: 669
GlyphClass: 2
Flags: MW
HStem: -280 56<304.5 364 304.5 372.5> 0 56<302.5 366 302.5 377> 615 56<302.5 366> 631 20G<556 617 617 617>
VStem: 51 62<298.5 373 298.5 381> 556 61<-28 95 95 95 298.5 373 576 651>
LayerCount: 2
Fore
SplineSet
334 671 m 0xec
 420 671 506 643 556 576 c 1
 556 651 l 1
 617 651 l 1xdc
 617 -28 l 2
 617 -99 599 -170 547 -217 c 0
 490 -268 411 -280 334 -280 c 0
 258 -280 179 -268 122 -217 c 0
 102 -199 87 -177 76 -154 c 1
 133 -127 l 1
 142 -145 153 -161 168 -175 c 0
 213 -215 275 -224 334 -224 c 0
 394 -224 456 -215 500 -175 c 0
 541 -139 556 -83 556 -28 c 2
 556 95 l 1
 506 28 420 0 334 0 c 0
 254 0 174 23 122 84 c 0
 64 153 51 246 51 336 c 0
 51 426 64 519 122 587 c 0
 174 648 254 671 334 671 c 0xec
556 336 m 0
 556 410 547 487 500 545 c 1
 461 595 398 615 334 615 c 0xec
 271 615 208 595 168 545 c 0
 122 487 113 410 113 336 c 0
 113 261 122 184 168 126 c 0
 208 76 271 56 334 56 c 0
 398 56 461 76 500 126 c 1
 547 184 556 261 556 336 c 0
EndSplineSet
EndChar

StartChar: h
Encoding: 104 104 53
Width: 632
GlyphClass: 2
Flags: HMW
HStem: 0 21G<69 131 69 69 515 577 515 515> 615 56<297 349> 860 20G<69 131 131 131>
VStem: 69 62<0 431 609 880> 515 62<0 431 0 456.5>
LayerCount: 2
UndoRedoHistory
Layer: 1
Undoes
EndUndoes
Redoes
EndRedoes
EndUndoRedoHistory
Fore
SplineSet
131 0 m 1
 69 0 l 1
 69 880 l 1
 131 880 l 1
 131 0 l 1
EndSplineSet
Refer: 59 110 S 1 0 0 1 0 0 2
EndChar

StartChar: i
Encoding: 105 105 54
Width: 164
GlyphClass: 2
Flags: MW
HStem: 0 21G<51 51 51 113> 631 20G<51 113 113 113> 783 97<66.5 97.5>
VStem: 34 97<816.5 847> 51 62<0 651 0 651>
LayerCount: 2
Fore
SplineSet
34 832 m 0xf0
 34 862 51 880 82 880 c 0
 113 880 131 862 131 832 c 0
 131 801 113 783 82 783 c 0
 51 783 34 801 34 832 c 0xf0
51 0 m 1xe8
 51 651 l 1
 113 651 l 1
 113 0 l 1
 51 0 l 1xe8
EndSplineSet
EndChar

StartChar: j
Encoding: 106 106 55
Width: 463
GlyphClass: 2
Flags: MW
HStem: -280 56<207.5 248 201.5 256> 631 20G<350 412 412 412> 786 94<366.5 395.5>
VStem: 55 61<-154 -143> 334 94<818.5 847.5> 350 62<-112 651>
LayerCount: 2
Fore
SplineSet
116 -143 m 1xf4
 127 -198 171 -224 232 -224 c 0
 264 -224 297 -218 320 -196 c 0
 343 -175 350 -143 350 -112 c 2
 350 651 l 1
 412 651 l 1
 412 -112 l 2
 412 -159 401 -206 367 -238 c 0
 331 -271 280 -280 232 -280 c 0
 183 -280 132 -271 96 -238 c 0
 73 -216 60 -186 55 -154 c 1
 116 -143 l 1xf4
334 833 m 0xf8
 334 862 352 880 381 880 c 0
 410 880 428 862 428 833 c 0
 428 804 410 786 381 786 c 0
 352 786 334 804 334 833 c 0xf8
EndSplineSet
EndChar

StartChar: k
Encoding: 107 107 56
Width: 647
GlyphClass: 2
Flags: HMW
HStem: 0 21G<51 113 51 51 528 595 528 528> 631 20G<511 595 595 595> 860 20G<51 113 113 113>
VStem: 51 62<0 273 339 880>
LayerCount: 2
UndoRedoHistory
Layer: 0
Undoes
EndUndoes
Redoes
EndRedoes
EndUndoRedoHistory
Back
SplineSet
511 651 m 5
 595 651 l 5
 113 273 l 5
 113 339 l 5
 275 466 l 5
 511 651 l 5
EndSplineSet
UndoRedoHistory
Layer: 1
Undoes
EndUndoes
Redoes
EndRedoes
EndUndoRedoHistory
Fore
SplineSet
511 651 m 1
 595 651 l 1
 113 249 l 1
 113 318 l 1
 511 651 l 1
113 0 m 1
 51 0 l 1
 51 880 l 1
 113 880 l 1
 113 0 l 1
314 448 m 1
 595 0 l 1
 528 0 l 5
 268 412 l 1
 314 448 l 1
EndSplineSet
EndChar

StartChar: l
Encoding: 108 108 57
Width: 164
GlyphClass: 2
Flags: MW
HStem: 0 21G<51 51 51 113> 860 20G<51 113 113 113>
VStem: 51 62<0 880 0 880>
LayerCount: 2
Fore
SplineSet
51 0 m 1
 51 880 l 1
 113 880 l 1
 113 0 l 1
 51 0 l 1
EndSplineSet
EndChar

StartChar: m
Encoding: 109 109 58
Width: 1032
GlyphClass: 2
Flags: MW
HStem: 0 21G<69 131 69 69 494 556 494 494 919 981 919 919> 615 56<288 338 713 763> 631 20G<69 131 131 131>
VStem: 69 62<0 431 612 651> 494 62<0 431 0 456> 919 62<0 431 0 456>
CounterMasks: 1 1c
LayerCount: 2
Back
SplineSet
507 572 m 1xdc
 546 642 631 671 720 671 c 0
 786 671 855 658 902 611 c 0
 949 565 963 497 963 431 c 2
 963 0 l 1
 901 0 l 1
 901 431 l 2
 901 481 891 533 856 569 c 0
 821 605 770 615 720 615 c 0
 670 615 618 605 583 569 c 0
 548 533 538 481 538 431 c 2
 538 0 l 1
 476 0 l 1
 476 431 l 2
 476 481 466 533 431 569 c 0
 396 605 345 615 295 615 c 0xdc
 245 615 193 605 158 569 c 0
 123 533 113 481 113 431 c 2
 113 0 l 1
 51 0 l 1
 51 651 l 1
 113 651 l 1xbc
 113 612 l 1
 161 658 228 671 295 671 c 0
 383 671 468 642 507 572 c 1xdc
EndSplineSet
UndoRedoHistory
Layer: 1
Undoes
EndUndoes
Redoes
EndRedoes
EndUndoRedoHistory
Fore
SplineSet
553 575 m 1xb8
 617.802734375 638.212890625 691.177734375 671.18359375 768.272460938 671.18359375 c 0
 885.955078125 671.18359375 981 594.356445312 981 431 c 2
 981 0 l 1
 919 0 l 1
 919 431 l 2
 919 564.185546875 850.922851562 615.001953125 764.8203125 615.001953125 c 0
 679.083007812 615.001953125 593.40625 564.6171875 553 495 c 9
 553 575 l 1xb8
128 575 m 1xb8
 192.802734375 638.212890625 266.177734375 671.18359375 343.272460938 671.18359375 c 0
 460.955078125 671.18359375 556 594.356445312 556 431 c 2
 556 0 l 1
 494 0 l 1
 494 431 l 2
 494 564.185546875 425.922851562 615.001953125 339.8203125 615.001953125 c 0
 254.083007812 615.001953125 168.40625 564.6171875 128 495 c 9
 128 575 l 1xb8
131 578 m 1xb8
 131 431 l 1
 131 0 l 1
 69 0 l 1
 69 651 l 1
 131 651 l 1
 131 578 l 1xb8
EndSplineSet
EndChar

StartChar: n
Encoding: 110 110 59
Width: 632
GlyphClass: 2
Flags: HMW
HStem: 0 21G<69 131 69 69 515 577 515 515> 615 56<297 349> 631 20G<69 131 131 131>
VStem: 69 62<0 431 609 651> 515 62<0 431 0 456.5>
LayerCount: 2
UndoRedoHistory
Layer: 1
Undoes
EndUndoes
Redoes
EndRedoes
EndUndoRedoHistory
Fore
SplineSet
128 575 m 5xb8
 192.802734375 638.212890625 276.177734375 671.18359375 353.272460938 671.18359375 c 4
 470.955078125 671.18359375 574 594.356445312 574 431 c 6
 574 0 l 5
 512 0 l 5
 512 431 l 6
 512 564.185546875 435.922851562 615.001953125 349.8203125 615.001953125 c 4
 264.083007812 615.001953125 168.40625 564.6171875 128 495 c 13
 128 575 l 5xb8
131 578 m 1xb8
 131 431 l 1
 131 0 l 1
 69 0 l 1
 69 651 l 1
 131 651 l 1
 131 578 l 1xb8
EndSplineSet
EndChar

StartChar: o
Encoding: 111 111 60
Width: 670
GlyphClass: 2
Flags: HMW
HStem: -20 56<303.5 367 303.5 375.5> 615 56<303.5 367>
VStem: 52 62<287.5 364 287.5 372> 557 61<287.5 364>
LayerCount: 2
UndoRedoHistory
Layer: 1
Undoes
EndUndoes
Redoes
EndRedoes
EndUndoRedoHistory
Fore
SplineSet
335 615 m 0
 174.727539062 615 114 480.8515625 114 326 c 0
 114 170.325195312 174.02734375 36 335 36 c 0
 496.616210938 36 557 170.765625 557 326 c 4
 557 480.180664062 496.427734375 615 335 615 c 0
335 671 m 0
 533.5546875 671 618 520.311523438 618 326 c 0
 618 130.9609375 534.262695312 -20 335 -20 c 4
 136.3828125 -20 52 132.852539062 52 326 c 0
 52 518.038085938 136.520507812 671 335 671 c 0
EndSplineSet
EndChar

StartChar: p
Encoding: 112 112 61
Width: 687
GlyphClass: 2
Flags: HMW
HStem: -260 21G<69 131 69 69> -20 56<320.5 384 320.5 392.5> 615 56<320.5 384> 631 20G<69 131 131 131>
VStem: 69 62<-260 78 287.5 364 573 651> 574 61<287.5 364>
LayerCount: 2
UndoRedoHistory
Layer: 0
Undoes
EndUndoes
Redoes
EndRedoes
EndUndoRedoHistory
Back
SplineSet
113 573 m 5
 162 641 248 671 334 671 c 4
 532.554202249 671 617 535.311251207 617 326 c 4
 617 114.960725051 533.262590048 -20 334 -20 c 4
 248 -20 162 10 113 78 c 5
 168 108 l 5
 207 58 271 36 334 36 c 4
 495.616439214 36 556 162.76606435 556 326 c 4
 556 489.180662489 495.427325853 615 334 615 c 4
 271 615 207 593 168 543 c 5
 113 573 l 5
EndSplineSet
UndoRedoHistory
Layer: 1
Undoes
EndUndoes
Redoes
EndRedoes
EndUndoRedoHistory
Fore
SplineSet
131 564 m 1xec
 180 632 266 671 352 671 c 0
 550.5546875 671 635 535.311523438 635 326 c 0
 635 114.9609375 551.262695312 -20 352 -20 c 0
 266 -20 183 14 131 73 c 1
 131 140 l 1
 170 90 238 36 352 36 c 0
 513.616210938 36 574 162.765625 574 326 c 0
 574 489.180664062 513.427734375 615 352 615 c 0
 236 615 170 543 131 493 c 1
 131 564 l 1xec
131 -260 m 1
 69 -260 l 1
 69 651 l 1
 131 651 l 1xdc
 131 -260 l 1
EndSplineSet
EndChar

StartChar: q
Encoding: 113 113 62
Width: 669
GlyphClass: 2
Flags: HMW
HStem: -260 21G<51 113 51 51> -20 56<302 366 302 374> 615 56<302 366> 631 20G<51 113 113 113>
VStem: 51 62<-260 78 288 364 573 651> 556 61<288 364>
LayerCount: 2
UndoRedoHistory
Layer: 1
Undoes
EndUndoes
Redoes
EndRedoes
EndUndoRedoHistory
Fore
SplineSet
572 75 m 5xec
 572 138 l 5
 533 88 451 36 335 36 c 4
 174 36 113 162 113 325 c 4
 113 488 173 615 335 615 c 4
 449 615 517 561 556 511 c 5
 556 578 l 5
 504 637 421 671 335 671 c 4
 136 671 52 536 52 325 c 4
 52 116 136 -20 335 -20 c 4
 421 -20 523 7 572 75 c 5xec
555 -260 m 1
 617 -260 l 1
 617 651 l 1
 555 651 l 1xdc
 555 -260 l 1
EndSplineSet
EndChar

StartChar: r
Encoding: 114 114 63
Width: 537
GlyphClass: 2
Flags: MW
HStem: 0 21G<51 113 51 51> 615 56<246 298.5 239.5 300> 631 20G<51 113 113 113>
VStem: 51 62<0 431 618 651>
LayerCount: 2
Fore
SplineSet
408 528 m 1xd0
 389 585 332 615 268 615 c 0xd0
 224 615 180 603 152 569 c 0
 120 531 113 480 113 431 c 2
 113 0 l 1
 51 0 l 1
 51 651 l 1
 113 651 l 1xb0
 113 618 l 1
 153 657 211 671 268 671 c 0
 329 671 390 656 431 611 c 0
 447 593 459 572 467 550 c 1
 408 528 l 1xd0
EndSplineSet
EndChar

StartChar: s
Encoding: 115 115 64
Width: 610
GlyphClass: 2
Flags: MW
HStem: -20 56<270 330 270 338.5> 298 56<280 330> 615 56<280 338.5 271.5 340.5>
VStem: 51 62<465 503.5 465 511.5> 497 62<147.5 186.5>
LayerCount: 2
Fore
SplineSet
128 106 m 1
 158 51 235 36 305 36 c 0
 355 36 407 40 449 69 c 0
 481 90 497 128 497 167 c 0
 497 206 481 243 449 265 c 0
 407 293 355 298 305 298 c 0
 238 298 169 305 115 344 c 0
 71 376 51 430 51 484 c 0
 51 539 71 592 115 625 c 0
 169 664 238 671 305 671 c 0
 372 671 441 664 495 625 c 0
 513 611 527 594 538 575 c 1
 482 545 l 1
 452 601 376 615 305 615 c 0
 255 615 203 611 161 583 c 0
 129 561 113 523 113 484 c 0
 113 446 129 408 161 386 c 0
 203 358 255 354 305 354 c 0
 372 354 441 347 495 307 c 0
 539 275 559 221 559 167 c 0
 559 112 539 59 495 27 c 0
 441 -13 372 -20 305 -20 c 0
 210 -20 113 3 72 77 c 1
 128 106 l 1
EndSplineSet
EndChar

StartChar: t
Encoding: 116 116 65
Width: 500
GlyphClass: 2
Flags: HMW
HStem: 0 21G<219 281 219 219> 623 56<54 219 54 219 281 446> 860 20G<219 281 281 281>
VStem: 219 62<0 623 0 623 679 880>
LayerCount: 2
UndoRedoHistory
Layer: 1
Undoes
EndUndoes
Redoes
EndRedoes
EndUndoRedoHistory
Fore
SplineSet
54 623 m 1
 54 679 l 1
 174 679 l 1
 174 880 l 1
 236 880 l 1
 236 679 l 1
 401 679 l 1
 401 623 l 1
 236 623 l 1
 236 148 l 1
 174 148 l 1
 174 623 l 1
 54 623 l 1
335.260742188 -8.8642578125 m 0
 254.6953125 -8.8642578125 174 39.220703125 174 148 c 1
 236 148 l 1
 236 70.1328125 279.553710938 40.3154296875 338.572265625 40.3154296875 c 0
 413.7265625 39.7490234375 l 1
 413.94140625 -6.7509765625 l 1
 335.260742188 -8.8642578125 l 0
EndSplineSet
EndChar

StartChar: u
Encoding: 117 117 66
Width: 632
GlyphClass: 2
Flags: HMW
HStem: 0 21G<58 120 58 58 504 566 504 504> 615 56<286 338> 631 20G<58 120 120 120>
VStem: 58 62<0 431 609 651> 504 62<0 431 0 456.5>
LayerCount: 2
UndoRedoHistory
Layer: 1
Undoes
EndUndoes
Redoes
EndRedoes
EndUndoRedoHistory
Fore
SplineSet
504 76 m 5xb8
 439 13 356 -20 279 -20 c 4
 161 -20 58 57 58 220 c 6
 58 651 l 5
 120 651 l 5
 120 220 l 6
 120 87 196 36 282 36 c 4
 368 36 464 86 504 156 c 13
 504 76 l 5xb8
501 73 m 5xb8
 501 220 l 5
 501 651 l 5
 563 651 l 5
 563 0 l 5
 501 0 l 5
 501 73 l 5xb8
EndSplineSet
EndChar

StartChar: v
Encoding: 118 118 67
Width: 632
GlyphClass: 2
Flags: MW
HStem: 0 21G<266 366 266 266> 631 20G<51 115 115 115 523 581 581 581>
LayerCount: 2
Fore
SplineSet
51 651 m 1
 115 651 l 1
 319 31 l 1
 523 651 l 1
 581 651 l 1
 366 0 l 1
 266 0 l 1
 51 651 l 1
EndSplineSet
EndChar

StartChar: w
Encoding: 119 119 68
Width: 882
GlyphClass: 2
Flags: MW
HStem: 0 21G<262 362 262 262 520 620 520 520> 631 20G<51 115 115 115 309 372 372 372 516 573 573 573 773 831 831 831>
LayerCount: 2
Fore
SplineSet
309 651 m 1
 372 651 l 1
 444 429 l 1
 516 651 l 1
 573 651 l 1
 472 341 l 1
 573 32 l 1
 773 651 l 1
 831 651 l 1
 620 0 l 1
 520 0 l 1
 441 244 l 1
 362 0 l 1
 262 0 l 1
 51 651 l 1
 115 651 l 1
 315 32 l 1
 412 332 l 1
 309 651 l 1
EndSplineSet
EndChar

StartChar: x
Encoding: 120 120 69
Width: 610
GlyphClass: 2
Flags: MW
HStem: 0 21G<51 119 51 51 485 559 485 485> 631 20G<51 125 125 125 473 540 540 540>
LayerCount: 2
Fore
SplineSet
51 651 m 1
 125 651 l 1
 301 386 l 1
 473 651 l 1
 540 651 l 1
 336 335 l 1
 559 0 l 1
 485 0 l 1
 299 279 l 1
 119 0 l 1
 51 0 l 1
 265 330 l 1
 51 651 l 1
EndSplineSet
EndChar

StartChar: y
Encoding: 121 121 70
Width: 632
GlyphClass: 2
Flags: HMW
HStem: -260 21G<192 250 192 192> 631 20G<51 115 115 115 523 581 581 581>
LayerCount: 2
UndoRedoHistory
Layer: 1
Undoes
EndUndoes
Redoes
EndRedoes
EndUndoRedoHistory
Fore
SplineSet
51 651 m 1
 111 651 l 1
 318 79 l 5
 523 651 l 1
 581 651 l 1
 250 -260 l 1
 192 -260 l 1
 286 0 l 1
 288 0 l 1
 51 651 l 1
EndSplineSet
EndChar

StartChar: z
Encoding: 122 122 71
Width: 610
GlyphClass: 2
Flags: MW
HStem: 0 56<95 559 95 559 51 559> 595 56<51 559 51 515>
LayerCount: 2
Fore
SplineSet
51 595 m 1
 51 651 l 1
 559 651 l 1
 559 551 l 1
 95 56 l 1
 559 56 l 1
 559 0 l 1
 51 0 l 1
 51 100 l 1
 51 100 516 595 515 595 c 2
 51 595 l 1
EndSplineSet
EndChar

StartChar: Eth
Encoding: 208 208 72
Width: 684
GlyphClass: 2
Flags: MW
HStem: 493 56<82 601 82 601>
LayerCount: 2
Fore
SplineSet
82 493 m 1
 82 549 l 1
 601 549 l 1
 601 493 l 1
 82 493 l 1
EndSplineSet
EndChar

StartChar: Ntilde
Encoding: 209 209 73
Width: 904
GlyphClass: 2
Flags: MW
HStem: 493 56<82 822 82 822>
LayerCount: 2
Fore
SplineSet
82 493 m 1
 82 549 l 1
 822 549 l 1
 822 493 l 1
 82 493 l 1
EndSplineSet
EndChar
